<mxfile host="app.diagrams.net" modified="2023-05-29T20:08:06.714Z" agent="Mozilla/5.0 (X11; Linux x86_64; rv:109.0) Gecko/20100101 Firefox/111.0" etag="aUrldlGD3z63bFIhVkQG" version="21.3.5" type="device">
  <diagram name="Page-1" id="NnesV5St42bMwWYuN8ip">
    <mxGraphModel dx="934" dy="929" grid="0" gridSize="10" guides="1" tooltips="1" connect="1" arrows="1" fold="1" page="0" pageScale="1" pageWidth="850" pageHeight="1100" math="0" shadow="0">
      <root>
        <mxCell id="0" />
        <mxCell id="1" parent="0" />
        <mxCell id="xlCZjYcisONdwjktuFtv-72" value="&lt;font style=&quot;font-size: 36px;&quot; face=&quot;Verdana&quot;&gt;0011&lt;/font&gt;" style="text;html=1;strokeColor=default;fillColor=none;align=left;verticalAlign=middle;whiteSpace=wrap;rounded=0;" parent="1" vertex="1">
          <mxGeometry x="314.75" y="366" width="92" height="47" as="geometry" />
        </mxCell>
        <mxCell id="xlCZjYcisONdwjktuFtv-77" value="" style="endArrow=classic;html=1;rounded=0;entryX=1;entryY=0;entryDx=0;entryDy=0;strokeColor=#009900;exitX=0.25;exitY=1;exitDx=0;exitDy=0;dashed=1;strokeWidth=2;" parent="1" source="xlCZjYcisONdwjktuFtv-78" target="xlCZjYcisONdwjktuFtv-72" edge="1">
          <mxGeometry width="50" height="50" relative="1" as="geometry">
            <mxPoint x="425.5" y="290" as="sourcePoint" />
            <mxPoint x="565.5" y="350" as="targetPoint" />
            <Array as="points" />
          </mxGeometry>
        </mxCell>
        <mxCell id="xlCZjYcisONdwjktuFtv-78" value="&lt;font style=&quot;font-size: 24px;&quot; face=&quot;Verdana&quot;&gt;Possible crossover&amp;nbsp; points&lt;/font&gt;" style="text;html=1;strokeColor=none;fillColor=none;align=center;verticalAlign=middle;whiteSpace=wrap;rounded=0;fontColor=#009900;" parent="1" vertex="1">
          <mxGeometry x="339.61" y="260" width="318.28" height="30" as="geometry" />
        </mxCell>
        <mxCell id="xlCZjYcisONdwjktuFtv-79" value="" style="endArrow=classic;html=1;rounded=0;entryX=0;entryY=0;entryDx=0;entryDy=0;strokeColor=#009900;dashed=1;strokeWidth=2;" parent="1" source="xlCZjYcisONdwjktuFtv-78" target="xlCZjYcisONdwjktuFtv-126" edge="1">
          <mxGeometry width="50" height="50" relative="1" as="geometry">
            <mxPoint x="458.5" y="300" as="sourcePoint" />
            <mxPoint x="498.5" y="330" as="targetPoint" />
          </mxGeometry>
        </mxCell>
        <mxCell id="xlCZjYcisONdwjktuFtv-80" value="" style="endArrow=classic;html=1;rounded=0;entryX=0;entryY=0;entryDx=0;entryDy=0;strokeColor=#009900;exitX=0.75;exitY=1;exitDx=0;exitDy=0;dashed=1;strokeWidth=2;" parent="1" source="xlCZjYcisONdwjktuFtv-78" target="xlCZjYcisONdwjktuFtv-127" edge="1">
          <mxGeometry width="50" height="50" relative="1" as="geometry">
            <mxPoint x="468.5" y="310" as="sourcePoint" />
            <mxPoint x="675.5000000000005" y="330.0000000000001" as="targetPoint" />
            <Array as="points" />
          </mxGeometry>
        </mxCell>
        <mxCell id="xlCZjYcisONdwjktuFtv-90" value="" style="endArrow=none;dashed=1;html=1;rounded=0;strokeWidth=2;strokeColor=#009900;" parent="1" edge="1">
          <mxGeometry width="50" height="50" relative="1" as="geometry">
            <mxPoint x="498.45" y="778" as="sourcePoint" />
            <mxPoint x="498.45" y="563" as="targetPoint" />
          </mxGeometry>
        </mxCell>
        <mxCell id="xlCZjYcisONdwjktuFtv-100" value="" style="html=1;shadow=0;dashed=0;align=center;verticalAlign=middle;shape=mxgraph.arrows2.uTurnArrow;dy=2.59;arrowHead=23.28;dx2=28.6;direction=east;flipH=1;strokeColor=none;fillColor=#6600CC;gradientColor=none;" parent="1" vertex="1">
          <mxGeometry x="690" y="611" width="76" height="104" as="geometry" />
        </mxCell>
        <mxCell id="xlCZjYcisONdwjktuFtv-104" value="Parent A" style="text;html=1;strokeColor=none;fillColor=none;align=left;verticalAlign=middle;whiteSpace=wrap;rounded=0;fontFamily=Verdana;fontSize=24;" parent="1" vertex="1">
          <mxGeometry x="162" y="615" width="129" height="30" as="geometry" />
        </mxCell>
        <mxCell id="xlCZjYcisONdwjktuFtv-105" value="Parent B" style="text;html=1;strokeColor=none;fillColor=none;align=left;verticalAlign=middle;whiteSpace=wrap;rounded=0;fontFamily=Verdana;fontSize=24;" parent="1" vertex="1">
          <mxGeometry x="162" y="690" width="119" height="30" as="geometry" />
        </mxCell>
        <mxCell id="xlCZjYcisONdwjktuFtv-123" value="" style="shape=flexArrow;endArrow=classic;html=1;rounded=0;fillColor=#DBDBDB;strokeColor=none;" parent="1" edge="1">
          <mxGeometry width="50" height="50" relative="1" as="geometry">
            <mxPoint x="498.75" y="790" as="sourcePoint" />
            <mxPoint x="498.75" y="910" as="targetPoint" />
          </mxGeometry>
        </mxCell>
        <mxCell id="xlCZjYcisONdwjktuFtv-124" value="&lt;font style=&quot;font-size: 24px;&quot; face=&quot;Verdana&quot;&gt;Randomly chosen crossover&amp;nbsp; point&lt;/font&gt;" style="text;html=1;strokeColor=none;fillColor=none;align=center;verticalAlign=middle;whiteSpace=wrap;rounded=0;fontColor=#009900;" parent="1" vertex="1">
          <mxGeometry x="271.05" y="529" width="455.39" height="30" as="geometry" />
        </mxCell>
        <mxCell id="xlCZjYcisONdwjktuFtv-125" value="&lt;font style=&quot;font-size: 36px;&quot; face=&quot;Verdana&quot;&gt;0101&lt;/font&gt;" style="text;html=1;strokeColor=default;fillColor=none;align=left;verticalAlign=middle;whiteSpace=wrap;rounded=0;" parent="1" vertex="1">
          <mxGeometry x="406.75" y="366" width="92" height="47" as="geometry" />
        </mxCell>
        <mxCell id="xlCZjYcisONdwjktuFtv-126" value="&lt;font style=&quot;font-size: 36px;&quot; face=&quot;Verdana&quot;&gt;0001&lt;/font&gt;" style="text;html=1;strokeColor=default;fillColor=none;align=left;verticalAlign=middle;whiteSpace=wrap;rounded=0;" parent="1" vertex="1">
          <mxGeometry x="498.75" y="366" width="92" height="47" as="geometry" />
        </mxCell>
        <mxCell id="xlCZjYcisONdwjktuFtv-127" value="&lt;font style=&quot;font-size: 36px;&quot; face=&quot;Verdana&quot;&gt;1110&lt;/font&gt;" style="text;html=1;strokeColor=default;fillColor=none;align=left;verticalAlign=middle;whiteSpace=wrap;rounded=0;" parent="1" vertex="1">
          <mxGeometry x="590.75" y="366" width="95.25" height="47" as="geometry" />
        </mxCell>
        <mxCell id="xlCZjYcisONdwjktuFtv-128" value="&lt;font style=&quot;font-size: 36px;&quot; face=&quot;Verdana&quot;&gt;0011&lt;/font&gt;" style="text;html=1;strokeColor=default;fillColor=none;align=left;verticalAlign=middle;whiteSpace=wrap;rounded=0;" parent="1" vertex="1">
          <mxGeometry x="314.75" y="606.5" width="92" height="47" as="geometry" />
        </mxCell>
        <mxCell id="xlCZjYcisONdwjktuFtv-129" value="&lt;font style=&quot;font-size: 36px;&quot; face=&quot;Verdana&quot;&gt;0101&lt;/font&gt;" style="text;html=1;strokeColor=default;fillColor=none;align=left;verticalAlign=middle;whiteSpace=wrap;rounded=0;perimeterSpacing=0;" parent="1" vertex="1">
          <mxGeometry x="406.75" y="606.5" width="92" height="47" as="geometry" />
        </mxCell>
        <mxCell id="xlCZjYcisONdwjktuFtv-130" value="&lt;font style=&quot;font-size: 36px;&quot; face=&quot;Verdana&quot; color=&quot;#cc6600&quot;&gt;0001&lt;/font&gt;" style="text;html=1;strokeColor=default;fillColor=none;align=left;verticalAlign=middle;whiteSpace=wrap;rounded=0;" parent="1" vertex="1">
          <mxGeometry x="498.75" y="606.5" width="92" height="47" as="geometry" />
        </mxCell>
        <mxCell id="xlCZjYcisONdwjktuFtv-131" value="&lt;font style=&quot;font-size: 36px;&quot; face=&quot;Verdana&quot; color=&quot;#cc6600&quot;&gt;1110&lt;/font&gt;" style="text;html=1;strokeColor=default;fillColor=none;align=left;verticalAlign=middle;whiteSpace=wrap;rounded=0;" parent="1" vertex="1">
          <mxGeometry x="590.75" y="606.5" width="95.25" height="47" as="geometry" />
        </mxCell>
        <mxCell id="xlCZjYcisONdwjktuFtv-132" value="&lt;font style=&quot;font-size: 36px;&quot; face=&quot;Verdana&quot;&gt;0011&lt;/font&gt;" style="text;html=1;strokeColor=default;fillColor=none;align=left;verticalAlign=middle;whiteSpace=wrap;rounded=0;" parent="1" vertex="1">
          <mxGeometry x="314.75" y="685" width="92" height="47" as="geometry" />
        </mxCell>
        <mxCell id="xlCZjYcisONdwjktuFtv-133" value="&lt;font style=&quot;font-size: 36px;&quot; face=&quot;Verdana&quot;&gt;0101&lt;/font&gt;" style="text;html=1;strokeColor=default;fillColor=none;align=left;verticalAlign=middle;whiteSpace=wrap;rounded=0;" parent="1" vertex="1">
          <mxGeometry x="406.75" y="685" width="92" height="47" as="geometry" />
        </mxCell>
        <mxCell id="xlCZjYcisONdwjktuFtv-134" value="&lt;font style=&quot;font-size: 36px;&quot; face=&quot;Verdana&quot; color=&quot;#6600cc&quot;&gt;0101&lt;/font&gt;" style="text;html=1;strokeColor=default;fillColor=none;align=left;verticalAlign=middle;whiteSpace=wrap;rounded=0;" parent="1" vertex="1">
          <mxGeometry x="498.75" y="685" width="92" height="47" as="geometry" />
        </mxCell>
        <mxCell id="xlCZjYcisONdwjktuFtv-135" value="&lt;font style=&quot;font-size: 36px;&quot; face=&quot;Verdana&quot; color=&quot;#6600cc&quot;&gt;0011&lt;/font&gt;" style="text;html=1;strokeColor=default;fillColor=none;align=left;verticalAlign=middle;whiteSpace=wrap;rounded=0;" parent="1" vertex="1">
          <mxGeometry x="590.75" y="685" width="95.25" height="47" as="geometry" />
        </mxCell>
        <mxCell id="xlCZjYcisONdwjktuFtv-136" value="" style="html=1;shadow=0;dashed=0;align=center;verticalAlign=middle;shape=mxgraph.arrows2.uTurnArrow;dy=2.23;arrowHead=22.91;dx2=31.19;direction=west;flipH=0;strokeColor=none;fillColor=#CC6600;" parent="1" vertex="1">
          <mxGeometry x="690" y="636" width="59" height="69" as="geometry" />
        </mxCell>
        <mxCell id="xlCZjYcisONdwjktuFtv-137" value="Offspring A" style="text;html=1;strokeColor=none;fillColor=none;align=left;verticalAlign=middle;whiteSpace=wrap;rounded=0;fontFamily=Verdana;fontSize=24;" parent="1" vertex="1">
          <mxGeometry x="137" y="933" width="154" height="30" as="geometry" />
        </mxCell>
        <mxCell id="xlCZjYcisONdwjktuFtv-138" value="Offspring B" style="text;html=1;strokeColor=none;fillColor=none;align=left;verticalAlign=middle;whiteSpace=wrap;rounded=0;fontFamily=Verdana;fontSize=24;" parent="1" vertex="1">
          <mxGeometry x="137" y="1007" width="148" height="30" as="geometry" />
        </mxCell>
        <mxCell id="xlCZjYcisONdwjktuFtv-139" value="&lt;font style=&quot;font-size: 36px;&quot; face=&quot;Verdana&quot;&gt;0011&lt;/font&gt;" style="text;html=1;strokeColor=default;fillColor=none;align=left;verticalAlign=middle;whiteSpace=wrap;rounded=0;" parent="1" vertex="1">
          <mxGeometry x="314.75" y="924.5" width="92" height="47" as="geometry" />
        </mxCell>
        <mxCell id="xlCZjYcisONdwjktuFtv-140" value="&lt;font style=&quot;font-size: 36px;&quot; face=&quot;Verdana&quot;&gt;0101&lt;/font&gt;" style="text;html=1;strokeColor=default;fillColor=none;align=left;verticalAlign=middle;whiteSpace=wrap;rounded=0;perimeterSpacing=0;" parent="1" vertex="1">
          <mxGeometry x="406.75" y="924.5" width="92" height="47" as="geometry" />
        </mxCell>
        <mxCell id="xlCZjYcisONdwjktuFtv-141" value="&lt;font style=&quot;font-size: 36px;&quot; face=&quot;Verdana&quot; color=&quot;#cc6600&quot;&gt;0001&lt;/font&gt;" style="text;html=1;strokeColor=default;fillColor=none;align=left;verticalAlign=middle;whiteSpace=wrap;rounded=0;" parent="1" vertex="1">
          <mxGeometry x="498.75" y="1003" width="92" height="47" as="geometry" />
        </mxCell>
        <mxCell id="xlCZjYcisONdwjktuFtv-142" value="&lt;font style=&quot;font-size: 36px;&quot; face=&quot;Verdana&quot; color=&quot;#cc6600&quot;&gt;1110&lt;/font&gt;" style="text;html=1;strokeColor=default;fillColor=none;align=left;verticalAlign=middle;whiteSpace=wrap;rounded=0;" parent="1" vertex="1">
          <mxGeometry x="590.75" y="1003" width="95.25" height="47" as="geometry" />
        </mxCell>
        <mxCell id="xlCZjYcisONdwjktuFtv-143" value="&lt;font style=&quot;font-size: 36px;&quot; face=&quot;Verdana&quot;&gt;0011&lt;/font&gt;" style="text;html=1;strokeColor=default;fillColor=none;align=left;verticalAlign=middle;whiteSpace=wrap;rounded=0;" parent="1" vertex="1">
          <mxGeometry x="314.75" y="1003" width="92" height="47" as="geometry" />
        </mxCell>
        <mxCell id="xlCZjYcisONdwjktuFtv-144" value="&lt;font style=&quot;font-size: 36px;&quot; face=&quot;Verdana&quot;&gt;0101&lt;/font&gt;" style="text;html=1;strokeColor=default;fillColor=none;align=left;verticalAlign=middle;whiteSpace=wrap;rounded=0;" parent="1" vertex="1">
          <mxGeometry x="406.75" y="1003" width="92" height="47" as="geometry" />
        </mxCell>
        <mxCell id="xlCZjYcisONdwjktuFtv-145" value="&lt;font style=&quot;font-size: 36px;&quot; face=&quot;Verdana&quot; color=&quot;#6600cc&quot;&gt;0101&lt;/font&gt;" style="text;html=1;strokeColor=default;fillColor=none;align=left;verticalAlign=middle;whiteSpace=wrap;rounded=0;" parent="1" vertex="1">
          <mxGeometry x="498.75" y="924.5" width="92" height="47" as="geometry" />
        </mxCell>
        <mxCell id="xlCZjYcisONdwjktuFtv-146" value="&lt;font style=&quot;font-size: 36px;&quot; face=&quot;Verdana&quot; color=&quot;#6600cc&quot;&gt;0011&lt;/font&gt;" style="text;html=1;strokeColor=default;fillColor=none;align=left;verticalAlign=middle;whiteSpace=wrap;rounded=0;" parent="1" vertex="1">
          <mxGeometry x="590.75" y="924.5" width="95.25" height="47" as="geometry" />
        </mxCell>
      </root>
    </mxGraphModel>
  </diagram>
</mxfile>
